<svg height="399.579" viewBox="28.879 23.211 388.242 399.579" width="388.242" xmlns="http://www.w3.org/2000/svg" >
  <title>Monad icon</title>
  <g fill="currentColor" stroke="none" transform="translate(5.287 -0.12) translate(0 446) scale(0.05 -0.05)" >
    <path d="M4020 8420 c-1174 -157 -2225 -816 -2872 -1801 -928 -1413 -899 -3088 76 -4452 1180 -1650 3358 -2181 5111 -1246 467 249 1088 739 1196 943 105 197 -37 396 -264 371 -82 -10 -103 -24 -209 -140 -373 -414 -1044 -813 -1652 -983 -668 -187 -1419 -161 -2055 72 -775 283 -1410 787 -1812 1437 -563 911 -702 1907 -396 2826 612 1835 2464 2843 4297 2340 1378 -378 2352 -1675 2294 -3055 -35 -835 -448 -1630 -984 -1893 -428 -211 -790 -96 -790 249 0 107 20 166 306 882 292 733 379 964 432 1142 176 594 -80 1079 -594 1122 -299 25 -568 -101 -893 -418 -121 -117 -222 -212 -223 -210 -2 2 -18 61 -36 130 -113 444 -582 623 -1063 405 -142 -65 -219 -118 -409 -283 -130 -113 -130 -113 -130 46 0 157 -1 160 -72 225 -129 119 -177 115 -673 -50 -526 -175 -555 -195 -555 -381 0 -111 5 -126 64 -179 100 -89 167 -91 391 -13 130 45 195 60 195 43 0 -32 -272 -773 -651 -1772 -368 -968 -378 -1029 -189 -1127 173 -90 354 -4 420 200 89 272 590 1495 677 1653 479 864 1288 1446 1455 1046 73 -176 -37 -517 -732 -2270 -138 -348 -150 -398 -120 -488 61 -185 303 -233 450 -91 39 37 70 76 70 85 0 24 431 1107 559 1405 408 948 1118 1656 1455 1451 145 -88 132 -240 -62 -745 -638 -1664 -621 -1613 -608 -1894 26 -539 475 -863 1080 -782 898 122 1673 1219 1729 2450 102 2240 -1937 4054 -4213 3750z"/>
  </g>
</svg>
