<svg height="446" viewBox="0 0 1410 446" width="1410" xmlns="http://www.w3.org/2000/svg" >
  <title>Monad logo</title>
<!-- Solid-color smooth vector from /var/folders/ch/j9tt1f4j3s76jywl7jpz6sz00000gn/T/codex-clipboard-1b5b12fd-3ab3-4348-8665-55b6b78a886d.png; edit #000000 to change color. -->
  <g 
  fill="#000000" stroke="none" transform="translate(0.000000,446.000000) scale(0.050000,-0.050000)">
  <path d="M4020 8420 c-1174 -157 -2225 -816 -2872 -1801 -928 -1413 -899
  -3088 76 -4452 1180 -1650 3358 -2181 5111 -1246 467 249 1088 739 1196 943
  105 197 -37 396 -264 371 -82 -10 -103 -24 -209 -140 -373 -414 -1044 -813
  -1652 -983 -668 -187 -1419 -161 -2055 72 -775 283 -1410 787 -1812 1437 -563
  911 -702 1907 -396 2826 612 1835 2464 2843 4297 2340 1378 -378 2352 -1675
  2294 -3055 -35 -835 -448 -1630 -984 -1893 -428 -211 -790 -96 -790 249 0 107
  20 166 306 882 292 733 379 964 432 1142 176 594 -80 1079 -594 1122 -299 25
  -568 -101 -893 -418 -121 -117 -222 -212 -223 -210 -2 2 -18 61 -36 130 -113
  444 -582 623 -1063 405 -142 -65 -219 -118 -409 -283 -130 -113 -130 -113
  -130 46 0 157 -1 160 -72 225 -129 119 -177 115 -673 -50 -526 -175 -555 -195
  -555 -381 0 -111 5 -126 64 -179 100 -89 167 -91 391 -13 130 45 195 60 195
  43 0 -32 -272 -773 -651 -1772 -368 -968 -378 -1029 -189 -1127 173 -90 354
  -4 420 200 89 272 590 1495 677 1653 479 864 1288 1446 1455 1046 73 -176 -37
  -517 -732 -2270 -138 -348 -150 -398 -120 -488 61 -185 303 -233 450 -91 39
  37 70 76 70 85 0 24 431 1107 559 1405 408 948 1118 1656 1455 1451 145 -88
  132 -240 -62 -745 -638 -1664 -621 -1613 -608 -1894 26 -539 475 -863 1080
  -782 898 122 1673 1219 1729 2450 102 2240 -1937 4054 -4213 3750z M27246
  8061 c-83 -51 -90 -66 -237 -491 -69 -198 -198 -571 -288 -830 -90 -258 -200
  -582 -245 -720 -81 -250 -81 -250 -144 -170 -217 277 -459 446 -782 544 -208
  63 -825 51 -1060 -21 -1001 -304 -1733 -1224 -1851 -2326 -120 -1108 533
  -1927 1535 -1927 433 0 766 109 1107 362 186 138 179 136 179 54 0 -172 163
  -351 371 -407 391 -106 1050 149 1049 405 -1 262 -217 378 -483 257 -349 -158
  -384 -73 -198 483 657 1965 972 2893 1161 3426 427 1205 404 1114 327 1266
  -66 129 -301 180 -441 95z m-1917 -2252 c591 -153 849 -727 635 -1409 -227
  -723 -652 -1297 -1134 -1530 -480 -233 -1053 -152 -1325 186 -571 711 -98
  2137 869 2622 302 151 680 203 955 131z M11090 6507 c-801 -125 -1440 -614
  -1830 -1403 -526 -1065 -359 -2171 409 -2702 510 -352 1277 -394 1932 -105
  729 322 1308 1078 1467 1917 209 1107 -263 1990 -1203 2248 -153 42 -621 69
  -775 45z m588 -658 c295 -88 559 -299 670 -536 341 -726 -10 -1812 -748 -2313
  -558 -379 -1253 -362 -1662 39 -393 386 -448 1031 -149 1727 354 821 1180
  1294 1889 1083z M14609 6479 c-123 -36 -157 -101 -325 -609 -88 -264 -251
  -745 -363 -1070 -113 -324 -266 -770 -341 -990 -75 -220 -201 -589 -280 -820
  -177 -514 -180 -529 -157 -635 53 -236 356 -299 531 -111 28 29 120 266 243
  627 663 1936 688 1992 1069 2401 506 544 1394 768 1726 437 112 -112 135 -192
  124 -428 -10 -209 -54 -351 -478 -1559 -250 -709 -282 -931 -175 -1216 152
  -406 680 -515 1230 -254 192 91 247 158 247 301 0 277 -200 379 -480 245 -173
  -83 -326 -90 -385 -17 -66 81 -38 192 285 1129 400 1161 443 1357 381 1724
  -153 905 -1324 1135 -2322 455 -103 -70 -158 -98 -149 -75 35 82 33 255 -4
  326 -63 122 -227 182 -377 139z M20180 6478 c-1269 -146 -2367 -1587 -2223
  -2918 81 -742 495 -1256 1138 -1414 215 -52 642 -42 889 21 236 61 534 211
  721 363 162 132 148 130 164 23 66 -442 693 -581 1255 -279 210 113 269 263
  177 444 -77 151 -225 177 -448 79 -171 -75 -302 -86 -345 -28 -54 74 -31 194
  134 681 686 2030 878 2622 878 2709 0 219 -199 353 -407 273 -131 -50 -165
  -101 -245 -363 -95 -311 -93 -308 -145 -224 -295 477 -863 710 -1543 633z
  m485 -627 c382 -81 643 -350 727 -751 103 -489 -265 -1409 -764 -1908 -494
  -493 -1212 -613 -1658 -276 -552 417 -515 1415 82 2210 424 565 1046 845 1613
  725z"/>
  </g>
</svg>
